<svg height="511pt" viewBox="-84 0 511 511.63429" width="511pt" xmlns="http://www.w3.org/2000/svg"><path d="m116.34375 61.417969c.09375-.101563.128906-.238281.226562-.335938.042969-.046875.105469-.058593.148438-.097656 1.5625-1.660156 2.4375-3.847656 2.457031-6.128906.042969-4.394531-3.023437-8.214844-7.324219-9.121094-4.304687-.910156-8.648437 1.339844-10.390624 5.378906-1.742188 4.035157-.394532 8.742188 3.222656 11.246094 3.613281 2.503906 8.496094 2.109375 11.660156-.941406zm0 0"/><path d="m61.5 97.980469.054688-.078125c.039062-.039063.089843-.050782.132812-.09375 4.347656-3.949219 4.6875-10.671875.761719-15.042969s-10.648438-4.75-15.039063-.847656c-4.394531 3.898437-4.8125 10.617187-.9375 15.03125 3.875 4.417969 10.585938 4.875 15.027344 1.027343zm0 0"/><path d="m183.175781 27.429688c0 5.046874-4.09375 9.140624-9.144531 9.140624s-9.144531-4.09375-9.144531-9.140624c0-5.050782 4.09375-9.144532 9.144531-9.144532s9.144531 4.09375 9.144531 9.144532zm0 0"/><path d="m247.175781 9.144531c0 5.046875-4.09375 9.140625-9.144531 9.140625s-9.144531-4.09375-9.144531-9.140625c0-5.050781 4.09375-9.144531 9.144531-9.144531s9.144531 4.09375 9.144531 9.144531zm0 0"/><path d="m18.601562 146.285156c0 5.050782-4.09375 9.144532-9.140624 9.144532-5.050782 0-9.144532-4.09375-9.144532-9.144532 0-5.050781 4.09375-9.140625 9.144532-9.140625 5.046874 0 9.140624 4.089844 9.140624 9.140625zm0 0"/><path d="m264.160156 155.613281c4.628906-1.992187 9.992188.144531 11.984375 4.769531 2.523438 6.359376 4.148438 13.035157 4.835938 19.839844 10.742187 1.101563 21.59375.234375 32.023437-2.558594.132813-.046874.246094-.105468.382813-.148437 4.027343-1.1875 7.734375-3.273437 10.835937-6.105469 4.59375-5.058594 6.375-12.066406 4.753906-18.703125-5.210937-36.910156-51.492187-35.617187-59.335937-35.105469-9.652344 3.46875-85.777344 32.117188-183.242187 105.699219-5.605469 4.128907-19.96875 17.722657-20.324219 31.726563.460937 9.347656 5.359375 17.910156 13.183593 23.046875 2.128907 1.746093 3.359376 4.363281 3.347657 7.117187-.015625 2.757813-1.269531 5.359375-3.421875 7.085938-5.234375 4.238281-15.5625 15.542968-13.976563 23.320312 1.125 5.550782 9.011719 10.6875 22.207031 14.476563 3.789063 1.085937 6.457032 4.484375 6.609376 8.425781.308593 6.808594 3.410156 21.890625 11.0625 24.902344 3.847656 1.5 15.636718 2.246094 41.964843-23.636719 3.613281-3.484375 9.355469-3.40625 12.871094.175781 3.519531 3.578125 3.492187 9.324219-.054687 12.871094-4.808594 4.757812-9.871094 9.253906-15.167969 13.464844 1.261719 19.621094 1.121093 39.304687-.414063 58.90625-.304687 9.042968-3.527344 17.742187-9.1875 24.800781 15.863282-2.351563 32.035156-1.597656 47.609375 2.21875 14.683594 4.234375 35.269531 18.765625 55.179688 32.824219 13.277343 10.226562 27.519531 19.140625 42.523437 26.605468l-.03125-.300781c-3.382812-29.292969-33.257812-54.722656-45.945312-64.300781-3.425782-2.574219-5.429688-6.621094-5.402344-10.90625v-30.855469c0-4.445312 2.15625-8.613281 5.78125-11.1875 3.625-2.570312 8.269531-3.226562 12.464844-1.757812 31.3125 10.980469 48.3125 12.324219 51.679687 10.613281 1.882813-1.457031 2.5-4.582031 3.492188-11.871094 1.097656-14.726562 6.949219-28.699218 16.679687-39.8125 10.628906-12.359375 18.589844-26.78125 23.382813-42.363281-34-30.753906-37.625-81.425781-36.425781-111.027344-8.652344 1.171875-17.410157 1.386719-26.109376.644531-1.167968 5.261719-3.335937 10.25-6.386718 14.6875-8.933594 11.578126-22.253906 18.949219-36.808594 20.367188 2.375 10.265625-.027344 21.054688-6.53125 29.34375-7.566406 8.933594-20.003906 13.371094-37.667969 13.371094-7.335937-.070313-14.652343-.6875-21.890625-1.851563-1.546875 11.949219.066406 19.34375 2.84375 21.519531 1.269532.992188 6.726563 3.578126 23.507813-4.714843 4.515625-2.15625 9.925781-.285157 12.140625 4.203125 2.214844 4.484375.414062 9.917968-4.039063 12.191406-1.277343.628906-2.453125 1.097656-3.683593 1.652344v12.40625c12.59375 4.453125 20.148437 17.332031 17.890624 30.5-2.261718 13.164062-13.675781 22.789062-27.035156 22.789062s-24.773437-9.625-27.03125-22.789062c-2.261718-13.167969 5.292969-26.046875 17.890625-30.5v-6.65625c-1.726562.261718-3.46875.402344-5.214843.429687-5.664063.152344-11.210938-1.65625-15.703126-5.117187-10.8125-8.464844-11.613281-24.6875-9.550781-39.328125-2.871093-.644531-5.839843-1.355469-8.90625-2.128907-4.894531-1.242187-7.855469-6.214843-6.609375-11.109374 1.242188-4.894532 6.214844-7.855469 11.109375-6.613282 5.929688 1.503906 11.511719 2.742188 16.640625 3.71875 35.960938 7.007813 47.613282.628906 51.355469-3.792968 3.105469-4.75 3.90625-10.648438 2.171875-16.050782-.449219 0-.851562.046875-1.304688.046875-2.828124 0-5.75-.082031-8.753906-.238281-3.300781-.117188-6.28125-2.007812-7.796875-4.941406s-1.332031-6.457032.484375-9.214844c1.8125-2.761719 4.972656-4.328125 8.265625-4.101562 24.960938 1.277343 41.953125-3.457032 49.175781-13.773438 9.679688-13.804688.886719-35.007812.800782-35.21875-1.964844-4.640625.1875-9.996094 4.820312-11.980469zm0 0"/><path d="m201.460938 347.429688c0 5.046874-4.09375 9.140624-9.144532 9.140624-5.046875 0-9.140625-4.09375-9.140625-9.140624 0-5.050782 4.09375-9.144532 9.140625-9.144532 5.050782 0 9.144532 4.09375 9.144532 9.144532zm0 0"/><path d="m81.976562 203.84375c53.59375-41.027344 112.28125-74.9375 174.59375-100.882812l-15.140624-51.898438c-4.761719 9.425781-13.289063 16.402344-23.472657 19.199219-2.21875.515625-4.484375.777343-6.761719.78125-8.722656-.304688-17.039062-3.777344-23.390624-9.765625-1.300782 12.09375-7.277344 23.203125-16.65625 30.949218-4.074219 3.195313-9.113282 4.914063-14.289063 4.878907-10.847656-.914063-21.070313-5.453125-29.015625-12.890625 1.921875 17.949218-1.765625 31.09375-11.210938 39-5.105468 4.421875-11.636718 6.847656-18.390624 6.828125-6.351563-.15625-12.570313-1.847657-18.128907-4.929688 1.125 9.863281-1.796875 19.761719-8.101562 27.429688-7.402344 7.425781-17.515625 11.507812-28 11.300781zm0 0"/></svg>